<?xml version="1.0" standalone="no"?>
<!DOCTYPE svg PUBLIC "-//W3C//DTD SVG 20010904//EN"
 "http://www.w3.org/TR/2001/REC-SVG-20010904/DTD/svg10.dtd">
<svg version="1.0" xmlns="http://www.w3.org/2000/svg"
 width="235.000000pt" height="235.000000pt" viewBox="0 0 235.000000 235.000000"
 preserveAspectRatio="xMidYMid meet">
<metadata>
Created by B.Romain
</metadata>
<g transform="translate(0.000000,235.000000) scale(0.100000,-0.100000)"
fill="#000000" stroke="none">
<path d="M994 2033 c3 -10 24 -92 46 -183 22 -91 49 -201 60 -244 11 -44 20
-86 20 -94 0 -8 -15 -38 -32 -68 -31 -51 -35 -54 -65 -49 -47 8 -100 -17 -119
-58 -34 -71 9 -147 83 -147 27 0 43 8 70 35 33 33 35 38 31 87 -5 47 -2 57 31
108 56 86 59 86 114 2 32 -47 37 -63 32 -90 -21 -110 102 -191 169 -111 63 75
1 185 -100 177 -33 -3 -37 1 -70 53 l-35 56 65 266 c36 146 66 268 66 271 0 4
-6 6 -14 6 -8 0 -17 -12 -20 -26 -9 -36 -138 -367 -146 -377 -4 -5 -42 84 -86
197 -49 129 -83 206 -92 206 -8 0 -11 -7 -8 -17z m325 -107 c-6 -25 -15 -44
-19 -41 -4 3 0 25 8 49 21 57 26 53 11 -8z m-211 -156 c35 -91 66 -171 69
-177 3 -8 -3 -13 -15 -13 -12 0 -24 -5 -28 -11 -4 -7 -29 75 -55 182 -44 178
-57 238 -42 199 4 -8 35 -89 71 -180z m152 -70 c-22 -89 -40 -165 -40 -169 -1
-3 -7 9 -15 28 -18 39 -19 71 -4 71 5 0 7 5 4 10 -3 6 -2 10 4 10 6 0 8 7 5
15 -4 8 -1 15 6 15 6 0 8 5 5 10 -3 6 -1 10 4 10 6 0 10 3 10 8 -1 4 0 10 1
15 1 4 3 10 4 15 4 21 49 132 53 129 2 -3 -15 -77 -37 -167z m-67 -150 c3 -11
1 -18 -4 -14 -5 3 -9 12 -9 20 0 20 7 17 13 -6z m-11 -32 c21 0 32 -12 62 -63
46 -80 55 -86 92 -76 88 25 150 -102 77 -159 -31 -24 -56 -25 -90 -3 -36 24
-53 68 -41 109 8 30 4 40 -38 104 -41 61 -55 76 -66 68 -10 -6 -48 26 -48 39
0 15 2 15 13 -1 8 -10 25 -18 39 -18z m-112 -184 c15 -43 4 -79 -33 -110 -77
-65 -170 34 -114 120 36 55 128 49 147 -10z"/>
<path d="M1312 1347 c-12 -13 -22 -36 -22 -51 0 -36 41 -76 78 -76 64 0 86 77
37 125 -30 31 -65 32 -93 2z m83 -12 c33 -32 32 -70 -1 -92 -23 -15 -29 -15
-52 -2 -14 8 -29 27 -33 43 -6 22 -3 33 16 52 30 30 40 30 70 -1z"/>
<path d="M945 1345 c-47 -46 -23 -125 39 -125 68 0 103 83 56 130 -27 27 -66
25 -95 -5z m85 -5 c26 -26 25 -53 -3 -86 -19 -21 -29 -26 -50 -20 -54 13 -57
89 -4 114 31 15 35 14 57 -8z"/>
<path d="M621 1775 c-4 -5 -7 -154 -6 -329 1 -239 4 -321 13 -324 9 -3 12 59
11 260 0 145 0 289 0 320 l1 58 180 2 c106 2 181 7 183 13 3 13 -372 13 -382
0z"/>
<path d="M1357 1782 c-10 -2 -15 -8 -12 -13 4 -5 88 -9 189 -9 l182 0 0 -320
c-1 -252 1 -320 11 -320 19 0 19 660 1 661 -42 3 -357 3 -371 1z"/>
<path d="M670 1424 c0 -168 3 -303 8 -300 4 2 7 132 6 288 0 155 3 288 7 293
5 7 68 10 168 10 88 -1 158 2 155 7 -3 4 -81 8 -175 8 l-169 0 0 -306z"/>
<path d="M1344 1723 c4 -5 75 -9 157 -9 82 -1 154 -2 159 -3 6 -1 10 -107 10
-298 0 -163 3 -294 6 -290 5 4 9 510 5 590 -1 15 -16 17 -173 17 -94 0 -168
-3 -164 -7z"/>
<path d="M818 1633 c-5 -20 0 -43 10 -43 4 0 7 14 7 30 1 33 -10 40 -17 13z"/>
<path d="M870 1643 c0 -5 4 -15 10 -23 6 -9 5 -17 -3 -22 -8 -5 -7 -8 5 -8 13
0 17 7 15 30 -1 16 -8 30 -14 30 -7 0 -13 -3 -13 -7z"/>
<path d="M938 1620 c5 -36 9 -35 16 3 3 18 0 27 -8 27 -8 0 -11 -10 -8 -30z"/>
<path d="M1480 1639 c0 -5 6 -7 13 -3 10 6 10 4 0 -7 -18 -18 -16 -39 2 -39
10 0 15 10 15 30 0 20 -5 30 -15 30 -8 0 -15 -5 -15 -11z"/>
<path d="M1360 1626 c0 -8 -3 -22 -6 -30 -4 -11 -2 -15 8 -11 15 6 20 55 6 55
-4 0 -8 -6 -8 -14z"/>
<path d="M1417 1634 c-3 -4 -2 -14 3 -24 5 -10 6 -21 2 -25 -4 -4 0 -6 8 -3
20 6 26 58 7 58 -7 0 -17 -3 -20 -6z"/>
<path d="M1545 1630 c-3 -5 -1 -10 4 -10 15 0 14 -27 -1 -33 -8 -4 -7 -6 3 -6
20 -1 33 25 17 35 -7 4 -6 9 3 15 11 7 10 9 -3 9 -9 0 -20 -4 -23 -10z"/>
<path d="M419 998 c-2 -170 -1 -177 20 -163 7 4 10 33 8 76 -2 38 -3 69 -1 69
2 0 9 -21 17 -46 7 -25 17 -46 22 -47 6 -1 18 21 27 48 l17 50 -2 -75 c-1 -61
1 -75 13 -75 12 0 15 21 16 118 0 101 -2 117 -15 115 -9 -2 -22 -25 -31 -55
-9 -29 -18 -54 -21 -58 -3 -3 -14 22 -24 55 -26 85 -45 80 -46 -12z"/>
<path d="M730 1023 c-7 -27 -21 -77 -31 -113 -12 -44 -15 -68 -8 -75 12 -12
29 10 29 38 0 15 7 18 32 15 25 -2 34 -9 38 -28 5 -23 37 -37 34 -15 -8 56
-60 225 -69 225 -7 0 -18 -21 -25 -47z m39 -80 c1 -17 -5 -23 -19 -23 -17 0
-18 3 -10 25 6 14 10 27 10 30 0 33 3 37 10 15 4 -14 8 -35 9 -47z"/>
<path d="M953 953 c2 -83 6 -118 15 -121 8 -2 12 11 12 48 0 65 19 63 38 -3 7
-26 18 -47 23 -47 18 0 20 28 5 65 -13 31 -14 41 -2 63 15 32 14 75 -4 97 -7
8 -28 15 -50 15 l-38 0 1 -117z m67 52 c0 -32 -20 -61 -33 -48 -9 8 -9 78 -1
86 14 14 34 -8 34 -38z"/>
<path d="M1190 950 c0 -100 3 -120 15 -120 13 0 15 20 15 120 0 100 -2 120
-15 120 -12 0 -15 -20 -15 -120z"/>
<path d="M1362 953 l3 -118 39 0 c23 0 41 5 44 13 2 8 -7 12 -27 12 l-31 0 0
105 c0 88 -3 105 -15 105 -13 0 -15 -17 -13 -117z"/>
<path d="M1540 1065 c0 -3 10 -34 21 -68 12 -34 23 -80 24 -102 2 -22 3 -46 4
-53 0 -8 6 -12 13 -10 7 3 13 26 14 59 1 30 12 81 23 113 12 33 19 61 16 64
-13 13 -34 -11 -40 -47 -9 -53 -19 -52 -31 1 -6 28 -15 44 -26 46 -10 2 -18 1
-18 -3z"/>
<path d="M1789 1048 c-4 -72 -1 -209 4 -214 17 -17 27 14 24 81 -1 41 1 71 4
67 3 -4 18 -40 33 -79 42 -111 56 -99 56 47 0 100 -2 120 -15 120 -12 0 -15
-16 -15 -82 l-1 -83 -18 50 c-38 105 -43 115 -57 115 -8 0 -14 -10 -15 -22z"/>
<path d="M618 773 c-2 -5 -3 -51 -3 -103 l0 -95 80 -5 c97 -6 175 -1 175 11 0
5 -52 9 -115 9 l-115 0 0 89 c0 50 -4 92 -9 96 -5 3 -11 2 -13 -2z"/>
<path d="M1718 773 c-3 -5 -3 -39 -2 -78 3 -111 10 -105 -122 -105 -65 0 -114
-4 -114 -9 0 -12 69 -17 178 -13 l82 3 0 99 c0 54 -4 101 -9 105 -5 3 -11 2
-13 -2z"/>
<path d="M670 697 l0 -74 94 1 c52 1 98 4 102 9 4 4 -35 7 -87 7 l-95 0 1 61
c1 33 -2 62 -7 65 -4 3 -8 -28 -8 -69z"/>
<path d="M1670 708 l0 -68 -90 0 c-49 0 -90 -4 -90 -9 0 -5 42 -8 93 -7 l92 1
5 63 c3 35 2 69 -2 75 -4 7 -8 -18 -8 -55z"/>
<path d="M953 670 c-52 -31 -69 -81 -34 -99 14 -8 25 -6 45 10 32 25 27 38 -6
15 -30 -21 -38 -20 -38 4 0 20 47 70 65 70 5 0 2 -7 -8 -14 -10 -8 -14 -17 -8
-20 12 -8 41 20 41 40 0 19 -19 18 -57 -6z"/>
<path d="M1157 653 c-26 -41 -67 -82 -67 -67 0 5 9 24 20 42 11 17 18 32 15
32 -14 0 -46 -44 -51 -70 -6 -27 -4 -29 21 -26 15 2 31 9 35 17 5 7 11 11 14
8 3 -3 -2 -16 -11 -28 -12 -18 -17 -20 -24 -10 -6 11 -9 10 -15 -4 -9 -24 3
-34 24 -21 23 14 55 78 42 82 -6 2 -1 19 11 38 12 19 19 37 16 40 -3 3 -17
-11 -30 -33z"/>
<path d="M1234 663 c-10 -15 -27 -38 -38 -50 -11 -13 -16 -23 -13 -23 4 0 0
-11 -9 -25 -8 -13 -14 -32 -12 -41 3 -14 8 -13 36 10 17 15 32 36 32 46 0 10
6 21 13 23 7 3 4 6 -6 6 -17 1 -17 3 3 37 12 19 20 37 17 40 -3 3 -13 -7 -23
-23z m-23 -91 c-5 -10 -17 -25 -26 -32 -13 -11 -13 -8 2 18 19 33 41 46 24 14z"/>
<path d="M1011 614 c-22 -28 -23 -45 -4 -51 15 -5 54 38 51 56 -5 25 -25 23
-47 -5z m23 -18 c-6 -16 -24 -23 -24 -8 0 10 22 33 27 28 2 -2 1 -11 -3 -20z"/>
<path d="M1296 608 l-27 -33 11 30 10 30 -20 -24 c-11 -13 -19 -29 -17 -35 6
-19 76 -10 100 12 12 12 27 21 32 21 6 0 11 6 13 14 5 24 -31 14 -56 -15 -30
-35 -48 -37 -26 -3 25 39 10 41 -20 3z"/>
<path d="M1437 633 c-20 -5 -42 -52 -30 -64 10 -10 53 0 53 11 0 5 -10 6 -22
3 -21 -4 -22 -3 -4 7 15 10 16 14 5 21 -11 7 -10 9 4 9 9 0 17 5 17 10 0 6 -1
9 -2 9 -2 -1 -11 -3 -21 -6z"/>
</g>
</svg>
